HIERARCHY
ROOT Hips
{
  OFFSET -912.277 97.1368 -587.983
  CHANNELS 6 Xposition Yposition Zposition Zrotation Xrotation Yrotation
  JOINT LeftUpLeg
  {
    OFFSET 8.9458 -8.66707 0.101652
    CHANNELS 3 Zrotation Xrotation Yrotation
    JOINT LeftLeg
    {
      OFFSET 0 -44.4227 1.3727
      CHANNELS 3 Zrotation Xrotation Yrotation
      JOINT LeftFoot
      {
        OFFSET -0.253549 -42.0924 -1.46059
        CHANNELS 3 Zrotation Xrotation Yrotation
        JOINT LeftToes
        {
          OFFSET -0.04 -4.41509 8.4991
          CHANNELS 3 Zrotation Xrotation Yrotation
          End Site
          {
            OFFSET 0.08 -0.047448 9.77979
          }
        }
      }
    }
  }
  JOINT RightUpLeg
  {
    OFFSET -8.9458 -8.66707 0.101652
    CHANNELS 3 Zrotation Xrotation Yrotation
    JOINT RightLeg
    {
      OFFSET 0 -44.4227 1.3727
      CHANNELS 3 Zrotation Xrotation Yrotation
      JOINT RightFoot
      {
        OFFSET 0.253549 -42.0924 -1.46059
        CHANNELS 3 Zrotation Xrotation Yrotation
        JOINT RightToes
        {
          OFFSET 0.04 -4.41509 8.4991
          CHANNELS 3 Zrotation Xrotation Yrotation
          End Site
          {
            OFFSET -0.08 -0.137448 9.77979
          }
        }
      }
    }
  }
  JOINT Spine
  {
    OFFSET 0 11.8905 0
    CHANNELS 3 Zrotation Xrotation Yrotation
    JOINT Spine1
    {
      OFFSET 0 25.6574 0.127663
      CHANNELS 3 Zrotation Xrotation Yrotation
      JOINT HEad
      {
        OFFSET 0 8.73416 0.011341
        CHANNELS 3 Zrotation Xrotation Yrotation
        End Site
        {
          OFFSET -0.29 12.7742 2.51395
        }
      }
      JOINT LeftShoulder1
      {
        OFFSET 8.99 -0.362252 -0.22
        CHANNELS 3 Zrotation Xrotation Yrotation
        JOINT LeftArm
        {
          OFFSET 10.2827 -0.00338 0.322123
          CHANNELS 3 Zrotation Xrotation Yrotation
          JOINT LeftForeArm
          {
            OFFSET 32.7669 0.099144 -1.42434
            CHANNELS 3 Zrotation Xrotation Yrotation
            JOINT LeftHand
            {
              OFFSET 27.5643 0.085362 1.02216
              CHANNELS 3 Zrotation Xrotation Yrotation
              End Site
              {
                OFFSET 16.7443 -0.6 1.50291
              }
            }
          }
        }
      }
      JOINT RightShoulder
      {
        OFFSET -8.99 -0.362252 -0.22
        CHANNELS 3 Zrotation Xrotation Yrotation
        JOINT RightArm
        {
          OFFSET -10.2827 -0.00338 0.322123
          CHANNELS 3 Zrotation Xrotation Yrotation
          JOINT RightForeArm
          {
            OFFSET -32.8971 0.099144 -1.42434
            CHANNELS 3 Zrotation Xrotation Yrotation
            JOINT RightHand
            {
              OFFSET -27.4921 0.085362 1.02216
              CHANNELS 3 Zrotation Xrotation Yrotation
              End Site
              {
                OFFSET -16.6312 -0.6 1.50291
              }
            }
          }
        }
      }
    }
  }
}
MOTION
Frames:	13
Frame Time:	0.0166667
-891.744 83.8976 -551.929 2.10453 2.75165 -32.6951 20.3317 -45.0845 20.4967 -15.8101 51.8941 -19.292 10.7588 -2.70064 0.715791 -1.18446e-009 1.5602e-007 -4.87132e-009 -2.19713 -15.9944 4.77467 18.6259 48.8212 -43.3246 -18.1777 1.04842 -0.463927 0.0462048 0.000533403 0.662642 -3.61187 10.7397 -8.37436 1.89048e-006 -4.08549e-009 -0.02145 -10.0698 8.12884 15.1684 3.18055e-015 -3.18055e-015 -3.18055e-015 -162.614 -52.3169 -135.265 -103.106 56.7538 -30.1841 9.70259 22.4557 -1.22798 21.9018 11.9764 -3.06106 91.5615 -23.1522 90.1912 54.9774 59.2844 68.4495 -7.75526 18.7917 1.38558 
-893.086 84.089 -553.958 1.08733 2.85692 -32.3476 17.7897 -46.1073 24.7954 3.76018 51.3472 -36.2649 -3.41654 -2.08698 -0.20992 -1.18447e-009 1.5602e-007 -4.87131e-009 -0.97023 -15.5732 9.96584 20.4881 47.0839 -48.8725 -13.21 0.44521 -0.466301 0.0462048 0.000533403 0.662642 -2.61822 11.7171 -7.29871 1.89048e-006 -4.08549e-009 -0.01953 -10.4824 7.76028 14.7027 -8.82781e-032 1.59028e-015 3.18055e-015 -162.242 -50.9612 -134.169 -101.714 57.4238 -31.0778 9.67153 22.4541 -1.51635 21.5103 11.2307 -3.28599 92.2638 -23.086 89.8168 55.4506 60.1442 68.5315 -7.66694 18.9382 1.32037 
-894.356 83.8464 -556.283 0.0952347 2.76029 -32.2794 15.979 -48.1267 28.1266 20 48.479 -49.3343 -17.8155 -0.987762 -0.911684 -1.18447e-009 1.5602e-007 -4.87131e-009 0.168154 -15.7577 14.2354 21.5866 46.8429 -51.6879 -8.07202 -0.229882 -0.340805 0.0462048 0.000533403 0.662642 -1.7994 12.8297 -6.19402 1.89048e-006 -4.08548e-009 -0.0173956 -10.894 7.36992 14.3902 3.18055e-015 1.59028e-015 -3.18055e-015 -162.068 -49.7071 -133.24 -100.238 58.2672 -31.9537 9.13267 21.9314 -1.0312 20.7979 10.5526 -3.26803 93.1165 -23.0253 89.5382 56.0256 60.846 68.5313 -7.60424 19.0682 1.2744 
-895.463 83.3734 -558.631 -0.900928 2.52478 -32.4641 14.9702 -50.2995 30.3987 32.2938 44.6329 -58.1119 -32.1562 0.44104 -1.40087 -1.18447e-009 1.5602e-007 -4.87131e-009 1.2946 -16.4253 17.5653 22.0658 48.1523 -52.5434 -2.24264 -0.858344 -0.0948245 0.0462048 0.000533403 0.662642 -1.08931 14.0516 -5.07331 1.89048e-006 -4.08548e-009 -0.0152229 -11.3211 6.96577 14.2182 -4.77083e-015 1.59028e-015 -9.54166e-015 -162.077 -48.5845 -132.471 -98.6655 59.1722 -32.8697 9.05326 21.6537 -1.15111 19.9927 9.92054 -3.08044 93.9047 -22.9576 89.3705 56.6391 61.3655 68.4118 -7.499 19.2662 1.0828 
-896.443 83.0089 -561.153 -1.92649 2.19331 -32.8773 13.3131 -52.96 30.9697 41.9361 43.2618 -64.3598 -31.2881 0.588415 -1.3141 -1.18447e-009 1.5602e-007 -4.87131e-009 2.61121 -17.1928 19.9461 21.2705 49.9707 -51.6184 2.48091 -0.821458 0.105997 0.0462048 0.000533403 0.662642 -0.439107 15.3628 -3.94756 1.89048e-006 -4.08549e-009 -0.01315 -11.781 6.5634 14.1789 -3.18055e-015 1.59028e-015 9.54166e-015 -162.256 -47.6208 -131.867 -97.0792 60.0665 -33.7845 8.63066 21.0896 -0.858838 19.1264 9.31115 -2.74685 94.5922 -22.8727 89.2934 57.2186 61.6849 68.1853 -7.44239 19.4164 0.979392 
-897.492 82.6793 -563.84 -2.98976 1.79436 -33.5108 11.995 -54.8767 30.3379 49.4109 41.503 -68.3266 -30.555 0.768095 -1.36008 -1.18446e-009 1.5602e-007 -4.87132e-009 3.88664 -18.2117 21.3172 22.0799 51.6502 -51.6667 4.68384 -0.615613 0.200652 0.0462048 0.000533403 0.662642 0.17368 16.7283 -2.81387 1.89048e-006 -4.08548e-009 -0.00994116 -12.297 6.21038 14.29 1.59028e-015 -1.59028e-015 -3.18055e-015 -162.662 -46.947 -131.454 -95.6169 60.8874 -34.6849 8.44468 20.6589 -0.774781 18.2757 8.62717 -2.32353 95.0435 -22.7962 89.1638 57.7 61.7419 67.9255 -7.4109 19.5672 0.740909 
-898.511 82.3767 -566.487 -4.09019 1.37312 -34.3426 10.898 -55.7872 28.5624 54.5228 39.8635 -70.0407 -29.6094 0.820793 -1.38263 -1.18447e-009 1.5602e-007 -4.87132e-009 5.0286 -19.3451 21.6861 23.3868 53.2179 -51.8183 3.784 -0.377767 0.142175 0.0462048 0.000533403 0.662642 0.768877 18.1036 -1.67984 1.89048e-006 -4.08548e-009 -0.00638004 -12.8593 5.92439 14.5448 1.59028e-015 0 -3.18055e-015 -163.244 -46.5461 -131.244 -94.2118 61.5516 -35.5879 8.12636 20.2132 -0.592479 17.4798 7.94226 -1.82851 95.2866 -22.7419 89.0171 58.0726 61.5812 67.6078 -7.34475 19.6719 0.578084 
-899.525 82.2349 -569.047 -5.18461 0.956652 -35.3363 10.0389 -55.5461 25.8334 57.3074 38.6917 -69.6471 -28.2277 0.732588 -1.3646 -1.18446e-009 1.5602e-007 -4.87132e-009 5.68632 -20.3979 21.113 24.4974 54.6421 -51.2482 2.92542 -0.155265 0.0806571 0.0462048 0.000533403 0.662642 1.25886 19.0608 -0.789816 1.89048e-006 -4.08548e-009 -0.0037604 -13.4303 6.03229 15.2593 3.18055e-015 3.18055e-015 3.18055e-015 -164.047 -46.8174 -131.44 -92.8377 62.0181 -36.5003 7.91859 19.918 -0.605249 16.8111 7.68745 -1.10773 95.3211 -22.7581 88.8043 58.3046 61.2333 67.2585 -7.34531 19.7445 0.435753 
-900.601 82.6119 -571.51 -6.2099 0.577231 -36.4778 9.55493 -54.0026 22.4477 57.7363 38.0491 -67.1592 -26.2789 0.466772 -1.29814 -1.18447e-009 1.5602e-007 -4.87132e-009 5.9972 -21.109 19.6393 24.6135 55.5093 -49.2342 0.20258 0.0594882 -0.0481449 0.0462048 0.000533403 0.662642 1.68034 19.6031 -0.134131 1.89048e-006 -4.08549e-009 -0.00209918 -14.0479 6.49141 16.397 5.29669e-031 4.77083e-015 -6.36111e-015 -165.184 -47.6962 -132.152 -91.4671 62.2432 -37.4647 7.63647 19.7329 -0.451491 16.3398 7.67897 -0.179097 94.991 -22.9293 88.3108 58.3704 60.6605 66.9565 -7.42557 19.7259 0.222784 
-901.663 83.193 -573.772 -7.1281 0.253551 -37.7359 9.56057 -51.2767 18.6927 56.024 37.8407 -62.7017 -23.6861 0.066853 -1.19811 -1.18447e-009 1.5602e-007 -4.87131e-009 5.72735 -21.2711 17.4044 23.6045 55.6885 -45.5683 -1.21979 0.209216 -0.138003 0.0462048 0.000533403 0.662642 2.06597 20.1261 0.565712 1.89048e-006 -4.08548e-009 -0.000568192 -14.6972 6.93988 17.5397 1.59028e-015 1.59028e-015 -3.18055e-015 -166.511 -48.6034 -133.164 -90.1598 62.2558 -38.3929 7.39618 19.6476 -0.609263 15.9302 7.57404 0.75011 94.5052 -23.1831 87.6718 58.3332 60.0027 66.6575 -7.24135 19.7674 0.257511 
-902.703 84.0138 -575.791 -7.88802 -0.0212891 -39.0802 10.0107 -47.6131 14.6896 52.4946 37.8439 -56.4583 -20.4526 -0.449739 -1.0661 -1.18446e-009 1.5602e-007 -4.87132e-009 5.0434 -20.782 14.5058 21.6053 54.958 -40.5195 -3.69712 0.304385 -0.259363 0.0462048 0.000533403 0.662642 2.37719 20.5853 1.29417 1.89048e-006 -4.08548e-009 0.00080645 -15.369 7.37775 18.667 -1.59028e-015 4.77083e-015 -1.27222e-014 -168.039 -49.492 -134.48 -88.9793 62.1035 -39.2357 7.15609 19.6251 -0.719534 15.606 7.40741 1.66748 93.8658 -23.5029 86.8901 58.203 59.3318 66.4005 -7.21906 19.754 0.343983 
-903.705 85.3041 -577.561 -8.40348 -0.233819 -40.4974 10.8388 -43.1477 10.5626 47.1798 37.6183 -48.3401 -16.5298 -0.973715 -0.919406 -1.18446e-009 1.5602e-007 -4.87131e-009 4.01247 -19.5147 11.2273 16.2357 52.9938 -32.8993 -3.18958 0.152088 -0.295957 0.0462048 0.000533403 0.662642 2.58817 20.8983 2.03923 1.89048e-006 -4.08548e-009 0.00199864 -16.0811 7.79938 19.7599 8.82781e-032 -1.59028e-015 3.18055e-015 -169.856 -50.3021 -136.224 -88.0366 61.8155 -39.9482 6.88766 19.7906 -1.08218 15.4621 7.15023 2.55959 92.9658 -23.8861 85.9166 57.9947 58.6567 66.2401 -7.16845 19.7683 0.619269 
-904.683 86.7023 -579.052 -8.70207 -0.39833 -41.9571 11.9304 -38.1795 6.23266 40.6786 36.8294 -38.8306 -12.0204 -1.56451 -0.736732 -1.18447e-009 1.5602e-007 -4.87132e-009 2.84849 -17.5614 7.58287 12.559 49.8385 -26.3186 -4.5986 -0.0146527 -0.344008 0.0462048 0.000533403 0.662642 2.73149 21.0774 2.78141 1.89048e-006 -4.08548e-009 0.00298226 -16.8254 8.19613 20.7994 1.59028e-015 -6.36111e-015 -9.54166e-015 -171.912 -50.988 -138.301 -87.4124 61.466 -40.4304 6.65318 19.744 -1.27914 15.3482 6.91419 3.42133 92.0292 -24.2585 84.9083 57.7561 58.0614 66.1243 -7.03248 19.7936 0.927657 
